# xmcd
#
# Track frame offsets:
#	150
#	20240
#	44889
#	60453
#	82207
#	98702
#	117221
#	138355
#	155753
#	174298
#	189868
#	209585
#
# Disc length: 3020 seconds
#
# Revision: 0
# Processed by: cddbd v1.4PL0 Copyright (c) Steve Scherf et al.
# Submitted via: dBpowerAMP V4.0
#
DISCID=ab0bca0c
DTITLE=The Animals - The House Of The Rising Sun
DYEAR=1900
DGENRE=Rock
TTITLE0=House Of The Rising Sun
TTITLE1=To Love Somebody
TTITLE2=San Francisco Nights
TTITLE3=Howlin'
TTITLE4=We Gotta Get Out Of This Place
TTITLE5=Frisco Queen
TTITLE6=Night Fighter
TTITLE7=Don't Let Me Be Misunderstood
TTITLE8=Roadbuster
TTITLE9=Stand Up
TTITLE10=Sove Fire
TTITLE11=When I Was Young
EXTD=Atan Mulyadi
EXTT0=
EXTT1=
EXTT2=
EXTT3=
EXTT4=
EXTT5=
EXTT6=
EXTT7=
EXTT8=
EXTT9=
EXTT10=
EXTT11=
PLAYORDER=
